<?xml version="1.0" encoding="utf-8"?>
<!-- Generator: Adobe Illustrator 23.0.6, SVG Export Plug-In . SVG Version: 6.00 Build 0)  -->
<svg version="1.1" id="Layer_1" xmlns="http://www.w3.org/2000/svg" xmlns:xlink="http://www.w3.org/1999/xlink" x="0px" y="0px"
	 viewBox="0 0 1920 2123.9" style="enable-background:new 0 0 1920 2123.9;" xml:space="preserve">
<style type="text/css">
	.st0{fill:#EFF2F9;}
	.st1{fill:#021859;}
	.st2{clip-path:url(#SVGID_2_);}
	.st3{fill:#0B9ED9;}
	.st4{clip-path:url(#SVGID_4_);}
	.st5{fill:#F25CA2;}
	.st6{clip-path:url(#SVGID_6_);}
	.st7{fill:#FFC107;}
</style>
<title>Artboard 1</title>
<g>
	<rect class="st0" width="1920" height="2123.9"/>
	<path class="st1" d="M942-555.8l480.3,755.2c37.1,58.3,19.8,135.7-38.4,172.8l0,0l-331.6,210.9l-536.8-844
		c-5.9-9.3-3.2-21.6,6.1-27.6c-0.1,0,0,0,0,0L942-555.8z"/>
</g>
<g>
	<g>
		<g>
			<defs>
				<path id="SVGID_1_" d="M472.6,246.9l550.5,953.5c27.6,47.8,11.2,109-36.6,136.6L-44.9,1932.5L-687.4,819.6
					c-4.4-7.7-1.8-17.4,5.9-21.9l0,0L336,210.3C383.8,182.7,445,199,472.6,246.9L472.6,246.9z"/>
			</defs>
			<clipPath id="SVGID_2_">
				<use xlink:href="#SVGID_1_"  style="overflow:visible;"/>
			</clipPath>
			<g class="st2">
				<path class="st3" d="M-702.3,803.9L424.4,153.4l655.5,1135.4L-46.8,1939.3L-702.3,803.9z"/>
			</g>
		</g>
	</g>
</g>
<g>
	<g>
		<g>
			<defs>
				<path id="SVGID_3_" d="M2328.6,69.2l-372.4,215c-47.8,27.6-109,11.2-136.6-36.6l-238.5-413.1l445.1-257
					c7.7-4.4,17.4-1.8,21.9,5.9l0,0L2328.6,69.2z"/>
			</defs>
			<clipPath id="SVGID_4_">
				<use xlink:href="#SVGID_3_"  style="overflow:visible;"/>
			</clipPath>
			<g class="st4">
				<path class="st5" d="M1574.3-167.3l467.7-270l293.5,508.4l-467.7,270L1574.3-167.3z"/>
			</g>
		</g>
	</g>
</g>
<g>
	<g>
		<g>
			<defs>
				<path id="SVGID_5_" d="M1436.7,747.5l785.9,210.6c39.4,10.6,62.8,51.1,52.3,90.5l-227.8,850.1l-917.2-245.8
					c-6.3-1.7-10-8.2-8.4-14.5l0,0l224.8-838.6C1356.8,760.4,1397.3,736.9,1436.7,747.5L1436.7,747.5z"/>
			</defs>
			<clipPath id="SVGID_6_">
				<use xlink:href="#SVGID_5_"  style="overflow:visible;"/>
			</clipPath>
			<g class="st6">
				<path class="st7" d="M1113.8,1652.5l248.8-928.6l935.8,250.8l-248.8,928.6L1113.8,1652.5z"/>
			</g>
		</g>
	</g>
	<text transform="matrix(0.6856 0.7279 -0.7279 0.6856 551.5972 -175.2213)" style="font-family:'ArialMT'; font-size:11.9993px;">#ffc107</text>
	<text transform="matrix(0.6856 0.7279 -0.7279 0.6856 551.5972 -175.2213)" style="font-family:'ArialMT'; font-size:11.9993px;">#ffc107</text>
</g>
</svg>
